<svg xmlns="http://www.w3.org/2000/svg" width="16" height="12.314" viewBox="0 0 16 12.314">
    <path id="União_26" data-name="União 26" d="M11038.57-10430.343a2.14,2.14,0,0,1-.568-1.579v-9.013a1.22,1.22,0,0,1,1.221-1.221h13.558a1.219,1.219,0,0,1,1.221,1.221v9.016a2.127,2.127,0,0,1-.569,1.576,2.052,2.052,0,0,1-1.5.5l-11.968,0A1.893,1.893,0,0,1,11038.57-10430.343Zm1-9.807v8.259a.578.578,0,0,0,0,.071.427.427,0,0,0,.44.405h12a.431.431,0,0,0,.414-.41v-8.325a.435.435,0,0,0-.433-.436h-11.99A.436.436,0,0,0,11039.572-10440.149Zm3.792,2.921a.785.785,0,0,1-.785-.785.786.786,0,0,1,.785-.785h5a.786.786,0,0,1,.785.785.785.785,0,0,1-.785.785Z" transform="translate(-11038.001 10442.155)" fill="#fff"/>
</svg>