<svg xmlns="http://www.w3.org/2000/svg" width="16" height="10.71" viewBox="0 0 16 10.71">
  <path id="Icon_fa-solid-code" data-name="Icon fa-solid-code" d="M9.81,8.218a1.191,1.191,0,0,0,0,1.684l3.319,3.323L9.807,16.548a1.191,1.191,0,0,0,1.684,1.684l4.163-4.163a1.191,1.191,0,0,0,0-1.684L11.49,8.222a1.191,1.191,0,0,0-1.684,0Zm-3.613,0a1.191,1.191,0,0,0-1.684,0L.35,12.381a1.191,1.191,0,0,0,0,1.684l4.163,4.163A1.191,1.191,0,0,0,6.2,16.544L2.874,13.225,6.2,9.9A1.191,1.191,0,0,0,6.2,8.218Z" transform="translate(-0.002 -7.87)" fill="#fff"/>
</svg>
